<svg width="20" height="17" viewBox="0 0 20 17" fill="none" xmlns="http://www.w3.org/2000/svg">
<path d="M4.0666 1.62347C2.59322 2.01277 1.5 3.25261 1.5 4.76122C1.5 5.53272 1.79087 6.41947 2.33398 7.38874C2.87337 8.35139 3.63226 9.34362 4.49694 10.312C6.04123 12.0415 7.86993 13.6368 9.25 14.7873C9.44958 14.6209 9.65855 14.4452 9.87468 14.2612C10.06 14.1034 10.3318 14.1001 10.5198 14.2547L10.9131 14.5783C11.152 14.7748 11.157 15.1389 10.9218 15.3397C10.488 15.7101 10.0839 16.046 9.72678 16.3401C9.44984 16.5681 9.05016 16.5681 8.77322 16.3401C7.35316 15.1706 5.18987 13.3401 3.37806 11.3111C2.47191 10.2962 1.63704 9.21355 1.0254 8.12197C0.417465 7.037 0 5.89019 0 4.76122C0 2.46891 1.65678 0.70873 3.6834 0.173239C5.51106 -0.30968 7.62954 0.188353 9.25 2.02966C10.8705 0.188354 12.9889 -0.30966 14.8166 0.173278C16.8432 0.70879 18.5 2.46899 18.5 4.7613C18.5 5.171 18.445 5.58306 18.3459 5.99365C18.2686 6.31386 17.8932 6.43782 17.621 6.25231L17.1557 5.93517C16.9808 5.81597 16.903 5.60005 16.9406 5.39176C16.98 5.17406 17 4.96371 17 4.7613C17 3.25268 15.9068 2.01283 14.4334 1.6235C13.0065 1.24646 11.2038 1.68251 9.87403 3.67716L9.66602 3.98917C9.46811 4.28604 9.03189 4.28604 8.83398 3.98917L8.62597 3.67716C7.29618 1.68251 5.49348 1.24644 4.0666 1.62347Z" fill="#37E004"/>
<path fill-rule="evenodd" clip-rule="evenodd" d="M10.3081 6.31929C10.5521 6.07521 10.9479 6.07521 11.1919 6.31929L18.1919 13.3193C18.436 13.5634 18.436 13.9591 18.1919 14.2032C17.9479 14.4473 17.5521 14.4473 17.3081 14.2032L16.5266 13.4218C15.8059 13.7322 15.0243 13.8861 14.25 13.8861C12.2247 13.8862 10.1493 12.8332 9.24366 10.679C9.13167 10.4127 9.13167 10.1097 9.24366 9.84333C9.61365 8.96328 10.1789 8.26703 10.8562 7.75127L10.3081 7.20317C10.064 6.95909 10.064 6.56337 10.3081 6.31929ZM11.7511 8.64622L15.5534 12.4485C15.1343 12.5733 14.6941 12.6361 14.25 12.6361C12.6591 12.6362 11.1169 11.8291 10.4247 10.2612C10.727 9.57648 11.1914 9.03687 11.7511 8.64622Z" fill="#37E004"/>
<path d="M17.5655 11.1089C17.7651 10.8569 17.9371 10.5742 18.0753 10.2612C17.3831 8.69328 15.8409 7.88624 14.25 7.88623C14.2085 7.88623 14.1671 7.88678 14.1257 7.88787C14.055 7.88975 13.9863 7.86362 13.9363 7.81365L13.2309 7.10828C13.0924 6.96977 13.1604 6.73515 13.354 6.70517C13.6512 6.65916 13.9511 6.63623 14.25 6.63623C16.2753 6.63624 18.3507 7.68923 19.2563 9.84332C19.3683 10.1097 19.3683 10.4127 19.2563 10.6791C19.0501 11.1696 18.7831 11.6031 18.4699 11.9801C18.3792 12.0893 18.2149 12.0922 18.1145 11.9918L17.5802 11.4576C17.4863 11.3636 17.483 11.2131 17.5655 11.1089Z" fill="#37E004"/>
</svg>
