<svg width="15" height="16" viewBox="0 0 15 16" fill="none" xmlns="http://www.w3.org/2000/svg">
<path d="M2.16992 0.5C2.16992 0.223858 1.94606 0 1.66992 0H0.669922C0.39378 0 0.169922 0.223858 0.169922 0.5V6.5C0.169922 6.77614 0.39378 7 0.669922 7H1.66992C1.94606 7 2.16992 6.77614 2.16992 6.5V0.5Z" fill="#37E004"/>
<path d="M2.16992 9.5C2.16992 9.22386 1.94606 9 1.66992 9H0.669922C0.39378 9 0.169922 9.22386 0.169922 9.5V15.5C0.169922 15.7761 0.39378 16 0.669922 16H1.66992C1.94606 16 2.16992 15.7761 2.16992 15.5V9.5Z" fill="#37E004"/>
<path d="M7.66992 9C7.94606 9 8.16992 9.22386 8.16992 9.5V15.5C8.16992 15.7761 7.94606 16 7.66992 16H6.66992C6.39378 16 6.16992 15.7761 6.16992 15.5V9.5C6.16992 9.22386 6.39378 9 6.66992 9H7.66992Z" fill="#37E004"/>
<path d="M8.16992 0.5C8.16992 0.223858 7.94606 0 7.66992 0H6.66992C6.39378 0 6.16992 0.223858 6.16992 0.5V6.5C6.16992 6.77614 6.39378 7 6.66992 7H7.66992C7.94606 7 8.16992 6.77614 8.16992 6.5V0.5Z" fill="#37E004"/>
<path d="M13.6699 9C13.9461 9 14.1699 9.22386 14.1699 9.5V15.5C14.1699 15.7761 13.9461 16 13.6699 16H12.6699C12.3938 16 12.1699 15.7761 12.1699 15.5V9.5C12.1699 9.22386 12.3938 9 12.6699 9H13.6699Z" fill="#37E004"/>
<path d="M14.1699 0.5C14.1699 0.223858 13.9461 0 13.6699 0H12.6699C12.3938 0 12.1699 0.223858 12.1699 0.5V6.5C12.1699 6.77614 12.3938 7 12.6699 7H13.6699C13.9461 7 14.1699 6.77614 14.1699 6.5V0.5Z" fill="#37E004"/>
</svg>
